<svg xmlns="http://www.w3.org/2000/svg" viewBox="0 0 50 50"><defs><style>.cls-1{fill:#fff;}.cls-1,.cls-2,.cls-3{stroke:#1d1d1b;stroke-miterlimit:10;stroke-width:2px;}.cls-2{fill:#36a9e1;}.cls-3{fill:#009fe3;}</style></defs><g id="Layer_2" data-name="Layer 2"><g id="Layer_1-2" data-name="Layer 1"><rect class="cls-1" x="1.09" y="10.69" width="11.95" height="38.31" rx="2.24"/><rect class="cls-1" x="13.04" y="1" width="11.95" height="48" rx="1.54"/><rect class="cls-1" x="24.99" y="15.92" width="11.95" height="33.08" rx="5.02"/><rect class="cls-2" x="37.05" y="10.99" width="11.95" height="37.79" rx="5.02"/><rect class="cls-1" x="39.72" y="18.25" width="6.83" height="25.2" rx="0.76"/><rect class="cls-2" x="1.1" y="15.27" width="11.95" height="3.27"/><rect class="cls-2" x="13.04" y="4.42" width="11.95" height="0.75"/><rect class="cls-2" x="13.01" y="8.23" width="11.95" height="0.75"/><rect class="cls-2" x="13.14" y="11.75" width="11.01" height="0.75"/><rect class="cls-3" x="24.99" y="19.01" width="11.95" height="0.75"/><rect class="cls-2" x="24.99" y="45.01" width="11.95" height="0.75"/><rect class="cls-2" x="16.33" y="16.91" width="5.38" height="25.96" rx="2.26"/><rect class="cls-2" x="1.09" y="23.36" width="11.95" height="3.27"/><rect class="cls-2" x="1" y="29.63" width="11.95" height="3.27"/><rect class="cls-2" x="1.1" y="42.49" width="11.95" height="3.27"/><line class="cls-1" x1="29.27" y1="21.41" x2="29.27" y2="42.49"/><line class="cls-1" x1="33.55" y1="21.41" x2="33.55" y2="43.65"/><ellipse class="cls-1" cx="43.13" cy="15.01" rx="0.86" ry="0.65"/><ellipse class="cls-1" cx="43.13" cy="45.76" rx="0.86" ry="0.65"/></g></g></svg>